<?xml version="1.0" standalone="no"?>
<!DOCTYPE svg PUBLIC "-//W3C//DTD SVG 20010904//EN"
 "http://www.w3.org/TR/2001/REC-SVG-20010904/DTD/svg10.dtd">
<svg version="1.0" xmlns="http://www.w3.org/2000/svg"
 width="752.000000pt" height="752.000000pt" viewBox="0 0 752.000000 752.000000"
 preserveAspectRatio="xMidYMid meet">
<metadata>
Created by potrace 1.14, written by Peter Selinger 2001-2017
</metadata>
<g transform="translate(0.000000,752.000000) scale(0.100000,-0.100000)"
fill="#000000" stroke="none">
<path d="M3239 7391 c-32 -16 -382 -217 -622 -358 -60 -34 -110 -63 -112 -63
-2 0 -48 -26 -102 -58 -54 -33 -219 -129 -368 -214 -148 -85 -436 -251 -640
-368 -203 -117 -383 -221 -400 -230 -16 -10 -172 -100 -345 -200 -173 -100
-341 -197 -372 -214 -109 -60 -146 -92 -157 -133 -6 -24 -9 -402 -8 -1023 2
-932 3 -987 20 -1013 43 -66 127 -85 188 -44 19 13 358 347 754 743 422 422
747 739 786 767 126 89 315 164 464 184 90 12 267 6 351 -11 191 -39 375 -136
519 -271 28 -26 106 -100 174 -164 68 -64 154 -145 190 -179 36 -35 80 -74 96
-87 38 -29 97 -37 139 -20 32 14 1606 1583 1624 1620 10 19 15 61 13 97 -1 9
-12 30 -26 46 -20 25 -230 152 -480 292 -59 33 -861 495 -1075 620 -538 312
-542 314 -611 281z"/>
<path d="M7438 6735 c-2 -2 -34 -6 -71 -10 -37 -3 -76 -8 -85 -10 -9 -1 -39
-6 -67 -9 -125 -16 -213 -27 -250 -32 -36 -4 -72 -9 -145 -19 -14 -2 -50 -7
-80 -10 -30 -3 -66 -8 -80 -10 -14 -2 -50 -6 -80 -10 -30 -3 -66 -8 -80 -10
-14 -2 -54 -7 -90 -10 -36 -3 -76 -8 -90 -10 -14 -2 -50 -7 -80 -10 -30 -3
-66 -8 -80 -10 -14 -2 -52 -7 -85 -10 -149 -14 -170 -21 -185 -61 -7 -18 -6
-33 4 -52 8 -15 91 -103 185 -195 94 -93 171 -173 171 -178 0 -5 -548 -557
-1217 -1228 -1086 -1087 -1222 -1220 -1255 -1225 -54 -10 -93 11 -182 95 -43
41 -100 93 -125 117 -25 24 -102 97 -171 162 -69 65 -145 137 -170 160 -25 23
-103 97 -173 163 -191 181 -198 187 -252 218 -136 78 -301 83 -445 12 -73 -35
-108 -70 -1111 -1072 -569 -570 -1049 -1056 -1066 -1081 -60 -88 -78 -146 -77
-245 0 -97 16 -148 72 -229 37 -54 133 -123 196 -141 110 -32 192 -24 296 27
59 29 145 111 945 911 484 484 889 886 900 893 62 40 120 20 221 -77 81 -77
127 -121 231 -219 44 -41 147 -138 229 -216 82 -77 175 -165 207 -195 32 -30
85 -79 118 -110 174 -164 409 -191 599 -69 25 16 665 650 1423 1408 l1378
1380 201 -204 c192 -194 204 -204 240 -204 28 0 41 6 52 23 13 20 17 39 31
160 3 23 8 62 11 87 3 25 7 63 9 85 5 53 17 156 20 175 2 8 6 42 9 75 13 117
17 151 31 250 8 55 17 125 20 155 3 30 8 66 10 80 5 33 23 171 31 240 4 30 12
94 18 143 14 100 3 141 -40 150 -13 2 -25 3 -26 2z"/>
<path d="M6286 4105 c-15 -8 -171 -158 -346 -332 -914 -916 -1444 -1404 -1695
-1566 -132 -85 -312 -127 -519 -122 -153 4 -282 36 -421 104 -121 59 -176 100
-319 234 -59 56 -123 116 -141 132 -17 17 -87 82 -154 145 -67 63 -132 119
-144 123 -44 17 -96 10 -130 -16 -18 -14 -320 -312 -670 -662 -688 -688 -671
-668 -648 -751 14 -51 19 -56 171 -143 69 -40 132 -76 140 -81 38 -23 250
-145 290 -168 25 -14 57 -33 72 -43 14 -11 28 -19 31 -19 3 0 97 -53 209 -118
111 -65 223 -130 248 -144 25 -14 133 -76 240 -138 107 -62 209 -121 225 -130
53 -30 296 -171 329 -190 129 -78 217 -120 247 -120 22 0 60 15 104 41 39 22
93 53 120 68 28 16 147 84 265 153 118 68 382 220 585 338 204 117 453 261
555 320 339 197 505 292 550 318 25 13 97 55 160 92 63 36 223 129 355 205
132 76 272 156 310 179 39 23 82 47 97 55 39 20 65 51 75 91 5 20 9 482 8
1050 l0 1015 -24 34 c-40 56 -116 76 -175 46z"/>
</g>
</svg>
